#!OML:ASF F:\twosubjects\two\wednesday\Session 1\rory1.ASF
:FULLY-SPECIFIED
:DEGREES
1062
root 17.8641 17.3963 29.4211 187.369 47.9977 -164.493
lowerback 11.3907 11.7478 8.16182
upperback -1.66955 16.6596 -4.11555
thorax -4.47664 8.05215 -10.8191
lowerneck 4.4531 0.602811 29.5316
upperneck 2.30689 2.42763 -16.0807
head 0.498115 1.54633 -9.90031
rclavicle 1.06747e-013 0
rhumerus -46.6042 -38.2981 -55.4008
rradius 32.4745
rwrist -1.82621
rhand -25.4423 42.9958
rfingers 7.12502
rthumb 1.08434 13.0188
lclavicle 1.06747e-013 0
lhumerus -39.8195 -29.1475 79.8993
lradius 49.6634
lwrist 18.5275
lhand -24.0286 10.1524
lfingers 7.12502
lthumb 2.44975 -319.882
rfemur -9.97199 9.15391 12.6713
rtibia 60.5989
rfoot -15.7756 -7.08084
rtoes -15.2828
lfemur -29.2974 2.34581 -23.3183
ltibia 57.572
lfoot -22.6279 2.61464
ltoes 18.4181
1063
root 17.6876 17.4461 29.5885 188.124 48.3235 -163.673
lowerback 11.5315 11.8303 8.6934
upperback -1.82759 16.8551 -3.98824
thorax -4.57304 8.1166 -11.0103
lowerneck 5.03019 0.45571 29.1803
upperneck 1.95144 2.3651 -15.9807
head 0.279272 1.51564 -9.81491
rclavicle -9.36276e-014 3.02153e-014
rhumerus -46.8817 -37.915 -55.4232
rradius 32.56
rwrist -1.61402
rhand -25.5295 43.0716
rfingers 7.12502
rthumb 1.0002 13.0942
lclavicle -9.36276e-014 3.02153e-014
lhumerus -40.0869 -29.4303 80.3643
lradius 49.7846
lwrist 18.2358
lhand -23.4475 9.54883
lfingers 7.12502
lthumb 3.01096 -320.493
rfemur -9.11474 8.36422 13.8844
rtibia 61.0603
rfoot -15.1711 -6.27331
rtoes -20.582
lfemur -29.9684 2.34805 -22.5854
ltibia 56.6691
lfoot -21.5569 2.2882
ltoes 22.2772
1064
root 17.5124 17.495 29.7565 188.016 48.8262 -163.905
lowerback 11.6393 12.0308 8.25997
upperback -1.84769 17.0712 -3.86598
thorax -4.76254 8.21678 -10.7171
lowerneck 5.31127 0.353341 28.8069
upperneck 1.90246 2.2866 -16.1041
head 0.196118 1.48211 -9.80279
rclavicle 9.99887e-014 -8.42847e-014
rhumerus -46.9987 -37.1067 -55.4801
rradius 32.8301
rwrist -1.94456
rhand -25.2943 42.9517
rfingers 7.12502
rthumb 1.22735 12.9755
lclavicle 9.99887e-014 -8.42847e-014
lhumerus -40.3163 -29.3584 80.9942
lradius 49.9142
lwrist 17.9647
lhand -22.2948 7.72941
lfingers 7.12502
lthumb 4.12407 -322.331
rfemur -8.23409 7.59785 14.235
rtibia 61.5099
rfoot -14.4967 -4.63004
rtoes -23.2086
lfemur -30.4566 2.59948 -22.7465
ltibia 55.7162
lfoot -20.5806 2.44418
ltoes 23.6743
1065
root 17.3375 17.5437 29.9235 187.619 49.3203 -164.545
lowerback 11.6648 12.2224 7.55868
upperback -1.79214 17.2294 -3.85975
thorax -4.88039 8.30809 -10.3833
lowerneck 5.43702 0.338774 28.4446
upperneck 1.91706 2.28364 -16.0845
head 0.173856 1.4835 -9.73832
rclavicle 2.62396e-014 -7.31528e-014
rhumerus -47.0147 -36.4364 -55.7311
rradius 33.1886
rwrist -2.53074
rhand -25.3837 42.8566
rfingers 7.12502
rthumb 1.14101 12.8799
lclavicle 2.62396e-014 -7.31528e-014
lhumerus -40.5971 -29.5771 81.5988
lradius 50.1871
lwrist 18.1926
lhand -22.2693 7.56936
lfingers 7.12502
lthumb 4.14872 -322.491
rfemur -7.38559 6.91702 14.3095
rtibia 61.9033
rfoot -13.931 -2.25694
rtoes -23.3012
lfemur -30.898 3.03049 -23.2733
ltibia 54.7494
lfoot -19.422 3.19161
ltoes 21.4814
1066
root 17.1591 17.5932 30.0877 187.947 49.7222 -164.537
lowerback 11.762 12.1862 7.97533
upperback -1.9703 17.2452 -4.39226
thorax -4.83693 8.31012 -11.18
lowerneck 5.6105 0.382762 28.7265
upperneck 1.82199 2.41554 -15.6995
head 0.149254 1.55504 -9.64767
rclavicle 2.55637e-013 5.24792e-014
rhumerus -47.1499 -36.6091 -56.6703
rradius 33.4113
rwrist -2.49905
rhand -25.5913 42.914
rfingers 7.12502
rthumb 0.940526 12.9363
lclavicle 2.55637e-013 5.24792e-014
lhumerus -40.5635 -30.1458 81.1155
lradius 50.455
lwrist 18.512
lhand -23.0484 9.31236
lfingers 7.12502
lthumb 3.39632 -320.735
rfemur -6.77921 6.29146 14.895
rtibia 62.2
rfoot -13.5235 0.231207
rtoes -23.5337
lfemur -31.6218 3.5262 -23.3221
ltibia 53.7429
lfoot -18.143 3.74094
ltoes 20.3986
1067
root 16.9748 17.6417 30.2527 188.79 49.9977 -163.897
lowerback 11.3313 12.4179 7.86023
upperback -1.9323 17.5061 -3.98475
thorax -4.66437 8.45147 -10.5898
lowerneck 5.52773 0.305883 28.29
upperneck 2.00929 2.26853 -15.8193
head 0.178761 1.48421 -9.61891
rclavicle 5.46658e-014 2.54444e-014
rhumerus -47.1728 -36.2654 -56.3101
rradius 33.5669
rwrist -2.40232
rhand -25.552 43.0186
rfingers 7.12502
rthumb 0.978405 13.0411
lclavicle 5.46658e-014 2.54444e-014
lhumerus -40.659 -29.5767 81.9141
lradius 50.6201
lwrist 17.8773
lhand -23.3381 10.1596
lfingers 7.12502
lthumb 3.1166 -319.883
rfemur -6.19168 5.66835 15.996
rtibia 62.3633
rfoot -12.9688 2.61264
rtoes -24.2979
lfemur -32.3919 3.98781 -22.8881
ltibia 52.6672
lfoot -16.845 3.71057
ltoes 22.3141
1068
root 16.7877 17.6926 30.4206 189.109 50.2442 -163.653
lowerback 11.4877 12.3787 8.19635
upperback -1.91944 17.5108 -4.15693
thorax -4.5835 8.45532 -10.9622
lowerneck 5.34329 0.363598 28.5193
upperneck 2.11454 2.31336 -15.8343
head 0.253123 1.50699 -9.65902
rclavicle 5.74488e-014 4.29375e-014
rhumerus -47.0195 -36.3683 -56.9306
rradius 33.7614
rwrist -2.17489
rhand -25.4833 43.1673
rfingers 7.12502
rthumb 1.04474 13.1901
lclavicle 5.74488e-014 4.29375e-014
lhumerus -40.5282 -29.284 81.7034
lradius 50.7436
lwrist 17.4258
lhand -23.4042 10.1544
lfingers 7.12502
lthumb 3.05279 -319.888
rfemur -5.39378 5.09574 16.9185
rtibia 62.3872
rfoot -12.1896 4.68615
rtoes -26.3441
lfemur -32.8232 4.31817 -22.6764
ltibia 51.4728
lfoot -15.4469 3.67638
ltoes 25.5922
1069
root 16.6041 17.7432 30.5846 189.119 50.5264 -163.922
lowerback 11.447 12.3865 8.13614
upperback -1.86605 17.5092 -4.4158
thorax -4.43792 8.47702 -11.1767
lowerneck 5.02955 0.4503 28.7629
upperneck 2.35907 2.36844 -15.8805
head 0.39213 1.53786 -9.711
rclavicle -1.30005e-013 4.45278e-014
rhumerus -46.7846 -36.4945 -57.5468
rradius 33.8612
rwrist -1.90544
rhand -25.6371 43.3993
rfingers 7.12502
rthumb 0.896262 13.4214
lclavicle -1.30005e-013 4.45278e-014
lhumerus -40.1948 -29.4885 81.5749
lradius 50.6294
lwrist 17.744
lhand -23.6272 10.0865
lfingers 7.12502
lthumb 2.83735 -319.953
rfemur -4.65214 4.58981 17.5106
rtibia 62.2192
rfoot -11.344 7.32637
rtoes -26.7736
lfemur -33.2647 4.55267 -22.8262
ltibia 50.2035
lfoot -14.0859 3.88764
ltoes 27.213
1070
root 16.4222 17.7868 30.7367 189.618 50.7688 -163.922
lowerback 10.8727 12.5027 8.1355
upperback -1.82127 17.6212 -4.55538
thorax -4.00564 8.57509 -11.1497
lowerneck 4.55836 0.517263 28.8316
upperneck 2.77698 2.34959 -15.9204
head 0.588303 1.53315 -9.73131
rclavicle -5.22804e-014 5.56597e-014
rhumerus -46.589 -36.6839 -57.764
rradius 33.8908
rwrist -1.62693
rhand -25.6435 43.5299
rfingers 7.12502
rthumb 0.890023 13.552
lclavicle -5.22804e-014 5.56597e-014
lhumerus -39.8766 -29.5873 81.6046
lradius 50.6627
lwrist 17.9944
lhand -23.3891 9.69744
lfingers 7.12502
lthumb 3.06731 -320.345
rfemur -4.11791 4.19847 18.2643
rtibia 61.7925
rfoot -9.95643 10.7479
rtoes -26.3822
lfemur -34.1111 4.72909 -22.894
ltibia 48.9732
lfoot -12.4615 4.52299
ltoes 25.3621
